<svg width="718" height="206" viewBox="0 0 718 206" fill="none" xmlns="http://www.w3.org/2000/svg">
<path d="M0 44.9075V102.969L26.3092 91.629V60.7838L57.6081 78.0208L85.7317 64.4126L26.3092 32.2065L0 44.9075Z" fill="black"/>
<path d="M88.452 0L43.5449 23.5876L73.483 39.4638L88.452 31.7525L102.514 39.4638L134.266 23.5876L88.452 0Z" fill="black"/>
<path d="M152.865 34.0205L121.567 48.9895L141.979 61.6905L0 125.649V160.577L21.7731 171.917L52.6184 156.494L33.5669 145.608L175.999 79.8348V45.8143L152.865 34.0205Z" fill="black"/>
<path d="M176 159.216V102.062L149.237 113.402V143.793L117.938 127.464L89.8145 141.525L150.144 172.824L176 159.216Z" fill="black"/>
<path d="M72.1222 167.834L43.5449 181.443L88.452 205.03L134.72 181.443L106.143 167.834L88.452 174.639L72.1222 167.834Z" fill="black"/>
<path d="M292 92.3125C292.167 92.3958 292.417 92.4375 292.75 92.4375C293.667 92.4375 294.125 91.8333 294.125 90.625V71.1875C294.125 68.7292 294.667 66.9792 295.75 65.9375C296.875 64.8958 298.729 64.375 301.312 64.375C303.938 64.375 305.792 64.9167 306.875 66C307.958 67.0833 308.5 68.9375 308.5 71.5625C308.5 72.5625 308.438 74.0417 308.312 76C308.188 77.9167 308.042 80.1042 307.875 82.5625C307.75 85.0208 307.625 87.6667 307.5 90.5C307.375 93.2917 307.312 96.0625 307.312 98.8125C307.312 103.062 307.604 106.729 308.188 109.812C308.771 112.896 309.604 115.458 310.688 117.5C311.771 119.5 313.062 121 314.562 122C316.062 122.958 317.75 123.438 319.625 123.438C320.667 123.438 321.604 123.312 322.438 123.062C323.312 122.771 324.333 122.625 325.5 122.625C326.333 122.625 327.021 123.062 327.562 123.938C328.146 124.771 328.438 125.792 328.438 127C328.438 128.083 328.104 129.104 327.438 130.062C326.812 131.021 325.938 131.854 324.812 132.562C323.729 133.271 322.458 133.833 321 134.25C319.542 134.625 318.021 134.812 316.438 134.812C313.021 134.812 309.896 133.771 307.062 131.688C304.229 129.562 302.104 126.333 300.688 122C300.562 121.333 300.354 121 300.062 121C299.729 121 299.458 121.333 299.25 122C298.125 125.042 296.646 127.792 294.812 130.25C293.021 132.667 290.917 134.75 288.5 136.5C286.125 138.208 283.5 139.521 280.625 140.438C277.792 141.354 274.792 141.812 271.625 141.812C268.292 141.812 265.229 141.25 262.438 140.125C259.688 139.042 257.312 137.521 255.312 135.562C253.312 133.562 251.75 131.229 250.625 128.562C249.5 125.854 248.938 122.938 248.938 119.812C248.938 115.812 249.771 112.042 251.438 108.5C253.104 104.958 255.354 101.875 258.188 99.25C261.062 96.5833 264.396 94.4792 268.188 92.9375C271.979 91.3958 276.021 90.625 280.312 90.625C282.062 90.625 283.917 90.7708 285.875 91.0625C287.833 91.3125 289.875 91.7292 292 92.3125ZM274.062 130.562C276.438 130.562 278.542 130.042 280.375 129C282.25 127.958 283.896 126.646 285.312 125.062C286.771 123.438 288 121.667 289 119.75C290 117.792 290.812 115.896 291.438 114.062C292.062 112.229 292.521 110.583 292.812 109.125C293.104 107.667 293.25 106.625 293.25 106C293.25 105.542 293.125 105.146 292.875 104.812C292.625 104.438 292.25 104.146 291.75 103.938C290.625 103.646 289.458 103.396 288.25 103.188C287.042 102.938 285.854 102.729 284.688 102.562C283.521 102.396 282.396 102.271 281.312 102.188C280.271 102.104 279.312 102.062 278.438 102.062C275.938 102.062 273.667 102.438 271.625 103.188C269.583 103.938 267.833 105 266.375 106.375C264.958 107.75 263.854 109.396 263.062 111.312C262.271 113.188 261.875 115.25 261.875 117.5C261.875 119.5 262.167 121.312 262.75 122.938C263.375 124.521 264.208 125.875 265.25 127C266.333 128.125 267.625 129 269.125 129.625C270.625 130.25 272.271 130.562 274.062 130.562ZM378.375 124.312C379.583 123.271 380.771 122.75 381.938 122.75C382.604 122.75 383.208 122.917 383.75 123.25C384.292 123.583 384.896 124.104 385.562 124.812C386.188 125.771 386.625 126.562 386.875 127.188C387.167 127.771 387.312 128.354 387.312 128.938C387.312 130.188 386.688 131.375 385.438 132.5C383.438 134.167 381.271 135.667 378.938 137C376.604 138.292 374.167 139.396 371.625 140.312C369.083 141.229 366.458 141.917 363.75 142.375C361.042 142.875 358.354 143.125 355.688 143.125C352.312 143.125 349.146 142.688 346.188 141.812C343.229 140.979 340.583 139.771 338.25 138.188C335.958 136.604 334.021 134.708 332.438 132.5C330.854 130.25 329.729 127.729 329.062 124.938C328.688 123.771 328.333 123.021 328 122.688C327.708 122.312 327.208 122.125 326.5 122.125C324.958 122.125 323.771 121.75 322.938 121C322.104 120.25 321.688 119.167 321.688 117.75C321.688 117.167 321.729 116.792 321.812 116.625L321.938 115.375C322.146 113.875 322.542 112.792 323.125 112.125C323.75 111.458 324.708 111.125 326 111.125H326.938C328.688 111.125 329.917 110.312 330.625 108.688C331.917 105.812 333.562 103.188 335.562 100.812C337.562 98.4375 339.812 96.4167 342.312 94.75C344.812 93.0417 347.479 91.7292 350.312 90.8125C353.188 89.8542 356.104 89.375 359.062 89.375C362.146 89.375 365.021 89.8333 367.688 90.75C370.396 91.625 372.75 92.8542 374.75 94.4375C376.75 96.0208 378.312 97.875 379.438 100C380.604 102.125 381.188 104.417 381.188 106.875C381.188 108.583 380.854 110.146 380.188 111.562C379.521 112.979 378.562 114.229 377.312 115.312C376.062 116.354 374.542 117.208 372.75 117.875C371 118.542 369 118.979 366.75 119.188L345.062 121.375C344.229 121.375 343.542 121.583 343 122C342.5 122.417 342.25 122.979 342.25 123.688C342.25 124.771 342.646 125.812 343.438 126.812C344.271 127.812 345.354 128.708 346.688 129.5C348.062 130.25 349.625 130.854 351.375 131.312C353.167 131.771 355 132 356.875 132C358.667 132 360.5 131.833 362.375 131.5C364.292 131.125 366.167 130.604 368 129.938C369.875 129.271 371.688 128.479 373.438 127.562C375.188 126.604 376.833 125.521 378.375 124.312ZM364.438 108.188C365.062 108.062 365.604 107.771 366.062 107.312C366.521 106.812 366.75 106.208 366.75 105.5C366.75 104.875 366.521 104.292 366.062 103.75C365.604 103.208 364.979 102.729 364.188 102.312C363.396 101.854 362.479 101.5 361.438 101.25C360.396 101 359.292 100.875 358.125 100.875C356.417 100.875 354.667 101.125 352.875 101.625C351.083 102.125 349.458 102.792 348 103.625C346.542 104.417 345.354 105.312 344.438 106.312C343.521 107.271 343.062 108.229 343.062 109.188C343.062 110.146 343.646 110.625 344.812 110.625C345.521 110.625 346.667 110.542 348.25 110.375C349.833 110.208 351.583 110.021 353.5 109.812C355.417 109.562 357.354 109.292 359.312 109C361.271 108.708 362.979 108.438 364.438 108.188ZM393.062 85.25C392.521 84.375 392.167 83.6458 392 83.0625C391.833 82.4375 391.75 81.9375 391.75 81.5625C391.75 80.8542 392.062 80.125 392.688 79.375C393.312 78.625 394.083 77.9583 395 77.375C395.917 76.75 396.896 76.25 397.938 75.875C398.979 75.4583 399.896 75.25 400.688 75.25C401.146 75.25 401.625 75.4375 402.125 75.8125C402.667 76.1458 403.396 77.0417 404.312 78.5C405.771 80.875 407.292 83.3333 408.875 85.875C410.5 88.4167 412.208 90.9792 414 93.5625C414.708 94.5208 415.438 95 416.188 95C417.021 95 417.792 94.5625 418.5 93.6875C421.333 90.5625 424.188 87.6667 427.062 85C429.938 82.3333 432.812 80.1667 435.688 78.5C437.438 77.4583 438.875 76.7708 440 76.4375C441.125 76.1042 441.938 75.9375 442.438 75.9375C443.229 75.9375 444.042 76.1875 444.875 76.6875C445.708 77.1875 446.458 77.8125 447.125 78.5625C447.833 79.2708 448.396 80.0208 448.812 80.8125C449.271 81.6042 449.5 82.3125 449.5 82.9375C449.5 83.8958 448.896 84.8333 447.688 85.75C446.521 86.6667 444.812 87.7917 442.562 89.125C439.438 91.0417 436.458 93.2917 433.625 95.875C430.833 98.4583 428.146 101.188 425.562 104.062C425.146 104.479 424.854 104.875 424.688 105.25C424.562 105.625 424.5 106 424.5 106.375C424.5 106.708 424.562 107.062 424.688 107.438C424.854 107.812 425.104 108.188 425.438 108.562C426.979 110.354 428.521 112 430.062 113.5C431.604 115 433.083 116.292 434.5 117.375C435.958 118.417 437.354 119.25 438.688 119.875C440.062 120.458 441.354 120.75 442.562 120.75C443.521 120.75 444.542 120.625 445.625 120.375C446.708 120.083 447.688 119.938 448.562 119.938C449.771 119.938 450.604 120.312 451.062 121.062C451.562 121.771 451.812 122.729 451.812 123.938C451.812 125.312 451.562 126.542 451.062 127.625C450.562 128.708 449.875 129.625 449 130.375C448.167 131.083 447.167 131.646 446 132.062C444.833 132.438 443.604 132.625 442.312 132.625C440.312 132.625 438.271 132.271 436.188 131.562C434.104 130.854 432.021 129.875 429.938 128.625C427.854 127.375 425.792 125.917 423.75 124.25C421.708 122.542 419.708 120.688 417.75 118.688C417 117.896 416.229 117.5 415.438 117.5C414.604 117.5 413.833 117.938 413.125 118.812C411.167 121.229 409.271 123.5 407.438 125.625C405.646 127.75 403.896 129.604 402.188 131.188C400.521 132.771 398.896 134.021 397.312 134.938C395.771 135.854 394.25 136.312 392.75 136.312C391.667 136.312 390.708 136.104 389.875 135.688C389.083 135.229 388.417 134.688 387.875 134.062C387.333 133.438 386.917 132.792 386.625 132.125C386.375 131.458 386.25 130.896 386.25 130.438C386.25 129.854 386.458 129.312 386.875 128.812C387.292 128.271 387.896 127.688 388.688 127.062C389.479 126.396 390.396 125.604 391.438 124.688C392.521 123.771 393.729 122.625 395.062 121.25C396.521 119.792 398.125 118 399.875 115.875C401.625 113.708 403.521 111.396 405.562 108.938C405.771 108.688 405.938 108.417 406.062 108.125C406.188 107.792 406.25 107.458 406.25 107.125C406.25 105.958 405.604 104.479 404.312 102.688C401.729 99.1458 399.479 95.8333 397.562 92.75C395.646 89.625 394.146 87.125 393.062 85.25ZM464.5 65.8125C464.5 63.6042 465.125 62.0625 466.375 61.1875C467.625 60.2708 469.688 59.8125 472.562 59.8125C473.604 59.8125 474.479 59.9167 475.188 60.125C475.938 60.2917 476.562 60.625 477.062 61.125C477.604 61.625 478.021 62.2917 478.312 63.125C478.646 63.9167 478.917 64.9375 479.125 66.1875C479.625 70.0625 480.167 74.0625 480.75 78.1875C481.375 82.3125 482.021 86.4583 482.688 90.625C482.938 92.5 483.917 93.4375 485.625 93.4375C486.083 93.4375 486.833 93.3958 487.875 93.3125C488.958 93.1875 490.229 93.0625 491.688 92.9375C493.146 92.7708 494.708 92.6042 496.375 92.4375C498.083 92.2708 499.771 92.125 501.438 92C503.146 91.8333 504.75 91.7083 506.25 91.625C507.792 91.5 509.146 91.4375 510.312 91.4375C511.229 91.4375 511.958 91.625 512.5 92C513.042 92.3333 513.458 92.7917 513.75 93.375C514.083 93.9167 514.292 94.5417 514.375 95.25C514.5 95.9167 514.562 96.6042 514.562 97.3125C514.562 97.9375 514.438 98.5833 514.188 99.25C513.979 99.9167 513.667 100.521 513.25 101.062C512.875 101.562 512.396 101.979 511.812 102.312C511.229 102.646 510.562 102.812 509.812 102.812C506.188 102.812 502.521 102.938 498.812 103.188C495.146 103.396 491.479 103.688 487.812 104.062C485.938 104.312 485 105.25 485 106.875C485 107 485.021 107.167 485.062 107.375C485.104 107.542 485.125 107.688 485.125 107.812C485.625 111.438 486.083 114.833 486.5 118C486.958 121.167 487.333 124 487.625 126.5C487.958 128.958 488.208 131.021 488.375 132.688C488.583 134.312 488.688 135.396 488.688 135.938C488.688 137.438 488.542 138.688 488.25 139.688C487.958 140.729 487.479 141.562 486.812 142.188C486.146 142.854 485.25 143.312 484.125 143.562C483.042 143.854 481.667 144 480 144C478.417 144 477.25 143.625 476.5 142.875C475.75 142.125 475.333 140.979 475.25 139.438C475 134.521 474.604 129.583 474.062 124.625C473.521 119.625 472.896 114.646 472.188 109.688C471.812 107.896 470.875 107 469.375 107C469.25 107 469.104 107.021 468.938 107.062C468.771 107.104 468.625 107.125 468.5 107.125C465.917 107.708 463.479 108.292 461.188 108.875C458.896 109.458 456.75 110.083 454.75 110.75C453.625 111.125 452.625 111.396 451.75 111.562C450.875 111.688 450.083 111.75 449.375 111.75C448.417 111.75 447.708 111.333 447.25 110.5C446.792 109.625 446.562 108.542 446.562 107.25C446.562 106.792 446.604 106.271 446.688 105.688C446.771 105.062 446.938 104.458 447.188 103.875C447.396 103.25 447.729 102.688 448.188 102.188C448.604 101.646 449.188 101.208 449.938 100.875C451.688 100.167 454.021 99.4375 456.938 98.6875C459.854 97.8958 463.146 97.1667 466.812 96.5C467.646 96.2917 468.292 95.9583 468.75 95.5C469.25 95 469.5 94.2708 469.5 93.3125C469.5 93.1042 469.5 92.8958 469.5 92.6875C469.5 92.4375 469.458 92.1875 469.375 91.9375C468.708 88.1042 468.062 84.625 467.438 81.5C466.854 78.3333 466.333 75.625 465.875 73.375C465.458 71.125 465.125 69.3542 464.875 68.0625C464.625 66.7708 464.5 66.0208 464.5 65.8125ZM511.75 117.25C511.75 116.542 511.833 115.75 512 114.875C512.167 114 512.25 113.042 512.25 112C512.25 111.292 511.938 110.75 511.312 110.375C510.729 110 510.062 109.583 509.312 109.125C508.562 108.667 507.875 108.083 507.25 107.375C506.667 106.667 506.375 105.646 506.375 104.312C506.375 103.354 506.625 102.396 507.125 101.438C507.667 100.479 508.438 99.6042 509.438 98.8125C511.896 96.9792 514.438 95.3333 517.062 93.875C519.729 92.4167 522.375 91.1875 525 90.1875C527.667 89.1875 530.292 88.4167 532.875 87.875C535.458 87.3333 537.938 87.0625 540.312 87.0625C544.312 87.0625 548.062 87.8125 551.562 89.3125C555.104 90.7708 558.167 92.7917 560.75 95.375C563.375 97.9167 565.438 100.917 566.938 104.375C568.479 107.792 569.25 111.458 569.25 115.375C569.25 119.208 568.438 122.854 566.812 126.312C565.229 129.729 563.083 132.729 560.375 135.312C557.667 137.896 554.479 139.938 550.812 141.438C547.188 142.979 543.354 143.75 539.312 143.75C535.354 143.75 531.688 143.083 528.312 141.75C524.938 140.417 522.021 138.583 519.562 136.25C517.104 133.875 515.188 131.083 513.812 127.875C512.438 124.625 511.75 121.083 511.75 117.25ZM540.688 132.5C542.438 132.5 544.25 132.146 546.125 131.438C548 130.729 549.708 129.708 551.25 128.375C552.833 127 554.125 125.333 555.125 123.375C556.167 121.417 556.688 119.208 556.688 116.75C556.688 114.25 556.229 111.917 555.312 109.75C554.396 107.583 553.125 105.708 551.5 104.125C549.917 102.5 548.021 101.229 545.812 100.312C543.646 99.3958 541.292 98.9375 538.75 98.9375C534.125 98.9375 530.583 100.146 528.125 102.562C525.667 104.938 524.438 108.604 524.438 113.562C524.438 116.271 524.833 118.792 525.625 121.125C526.458 123.417 527.604 125.417 529.062 127.125C530.521 128.792 532.229 130.104 534.188 131.062C536.188 132.021 538.354 132.5 540.688 132.5ZM578.25 117.25C578.25 116.542 578.333 115.75 578.5 114.875C578.667 114 578.75 113.042 578.75 112C578.75 111.292 578.438 110.75 577.812 110.375C577.229 110 576.562 109.583 575.812 109.125C575.062 108.667 574.375 108.083 573.75 107.375C573.167 106.667 572.875 105.646 572.875 104.312C572.875 103.354 573.125 102.396 573.625 101.438C574.167 100.479 574.938 99.6042 575.938 98.8125C578.396 96.9792 580.938 95.3333 583.562 93.875C586.229 92.4167 588.875 91.1875 591.5 90.1875C594.167 89.1875 596.792 88.4167 599.375 87.875C601.958 87.3333 604.438 87.0625 606.812 87.0625C610.812 87.0625 614.562 87.8125 618.062 89.3125C621.604 90.7708 624.667 92.7917 627.25 95.375C629.875 97.9167 631.938 100.917 633.438 104.375C634.979 107.792 635.75 111.458 635.75 115.375C635.75 119.208 634.938 122.854 633.312 126.312C631.729 129.729 629.583 132.729 626.875 135.312C624.167 137.896 620.979 139.938 617.312 141.438C613.688 142.979 609.854 143.75 605.812 143.75C601.854 143.75 598.188 143.083 594.812 141.75C591.438 140.417 588.521 138.583 586.062 136.25C583.604 133.875 581.688 131.083 580.312 127.875C578.938 124.625 578.25 121.083 578.25 117.25ZM607.188 132.5C608.938 132.5 610.75 132.146 612.625 131.438C614.5 130.729 616.208 129.708 617.75 128.375C619.333 127 620.625 125.333 621.625 123.375C622.667 121.417 623.188 119.208 623.188 116.75C623.188 114.25 622.729 111.917 621.812 109.75C620.896 107.583 619.625 105.708 618 104.125C616.417 102.5 614.521 101.229 612.312 100.312C610.146 99.3958 607.792 98.9375 605.25 98.9375C600.625 98.9375 597.083 100.146 594.625 102.562C592.167 104.938 590.938 108.604 590.938 113.562C590.938 116.271 591.333 118.792 592.125 121.125C592.958 123.417 594.104 125.417 595.562 127.125C597.021 128.792 598.729 130.104 600.688 131.062C602.688 132.021 604.854 132.5 607.188 132.5ZM640.562 66.8125C640.562 64.6458 641.188 63.1042 642.438 62.1875C643.688 61.2708 645.75 60.8125 648.625 60.8125C649.625 60.8125 650.5 60.9167 651.25 61.125C652 61.3333 652.625 61.6875 653.125 62.1875C653.625 62.6458 654.021 63.2917 654.312 64.125C654.646 64.9167 654.917 65.9375 655.125 67.1875C655.667 70.8958 656.208 74.7917 656.75 78.875C657.333 82.9167 657.875 86.9583 658.375 91C658.917 95 659.417 98.9167 659.875 102.75C660.333 106.542 660.729 110.083 661.062 113.375C661.438 116.625 661.708 119.521 661.875 122.062C662.083 124.562 662.188 126.542 662.188 128C662.188 129.5 662.042 130.771 661.75 131.812C661.5 132.854 661.042 133.688 660.375 134.312C659.75 134.938 658.917 135.396 657.875 135.688C656.875 135.938 655.625 136.062 654.125 136.062C652.667 136.062 651.5 135.688 650.625 134.938C649.792 134.188 649.375 133.042 649.375 131.5C649.375 129.917 649.25 127.812 649 125.188C648.75 122.521 648.417 119.562 648 116.312C647.583 113.062 647.104 109.604 646.562 105.938C646.062 102.271 645.521 98.6458 644.938 95.0625C644.396 91.4792 643.854 88.0417 643.312 84.75C642.812 81.4167 642.354 78.4792 641.938 75.9375C641.521 73.3542 641.188 71.25 640.938 69.625C640.688 67.9583 640.562 67.0208 640.562 66.8125ZM687.75 83.75C690.542 83.75 693.417 84.125 696.375 84.875C699.333 85.5833 702.042 86.5208 704.5 87.6875C706.958 88.8125 708.979 90.0833 710.562 91.5C712.146 92.9167 712.938 94.2917 712.938 95.625C712.938 96.2917 712.646 97.0417 712.062 97.875C711.479 98.6667 710.771 99.4375 709.938 100.188C709.104 100.896 708.188 101.5 707.188 102C706.229 102.458 705.375 102.688 704.625 102.688C703.625 102.688 702.5 102.271 701.25 101.438C700.042 100.604 698.688 99.6875 697.188 98.6875C695.729 97.6458 694.125 96.7083 692.375 95.875C690.625 95.0417 688.729 94.625 686.688 94.625C685.354 94.625 684.25 94.9583 683.375 95.625C682.542 96.25 682.125 97.1458 682.125 98.3125C682.125 99.3542 682.625 100.417 683.625 101.5C684.625 102.542 685.938 103.625 687.562 104.75C689.229 105.875 691.104 107.062 693.188 108.312C695.271 109.562 697.396 110.896 699.562 112.312C701.771 113.729 703.917 115.271 706 116.938C708.083 118.604 709.938 120.417 711.562 122.375C713.229 124.333 714.562 126.479 715.562 128.812C716.562 131.104 717.062 133.604 717.062 136.312C717.062 138.646 716.646 140.771 715.812 142.688C714.979 144.604 713.792 146.25 712.25 147.625C710.708 149 708.875 150.062 706.75 150.812C704.625 151.562 702.292 151.938 699.75 151.938C696.542 151.938 693.583 151.438 690.875 150.438C688.167 149.479 685.833 148.146 683.875 146.438C681.917 144.729 680.375 142.688 679.25 140.312C678.167 137.938 677.625 135.333 677.625 132.5C677.625 128.833 678.271 126.167 679.562 124.5C680.896 122.833 682.979 122 685.812 122C687.562 122 688.958 122.333 690 123C691.042 123.667 691.562 124.479 691.562 125.438C691.562 125.938 691.479 126.458 691.312 127C691.146 127.5 690.958 128.042 690.75 128.625C690.583 129.167 690.417 129.75 690.25 130.375C690.125 131 690.062 131.625 690.062 132.25C690.062 133.333 690.312 134.375 690.812 135.375C691.312 136.375 691.979 137.25 692.812 138C693.688 138.792 694.688 139.417 695.812 139.875C696.938 140.333 698.125 140.562 699.375 140.562C702.708 140.562 704.375 139.188 704.375 136.438C704.375 134.271 703.521 132.229 701.812 130.312C700.104 128.354 697.958 126.458 695.375 124.625C692.792 122.75 690 120.875 687 119C684.042 117.125 681.271 115.167 678.688 113.125C676.104 111.083 673.958 108.917 672.25 106.625C670.542 104.292 669.688 101.771 669.688 99.0625C669.688 96.8125 670.146 94.75 671.062 92.875C672.021 91 673.312 89.3958 674.938 88.0625C676.562 86.6875 678.458 85.625 680.625 84.875C682.833 84.125 685.208 83.75 687.75 83.75Z" fill="black"/>
</svg>
