<svg width="636" height="166" viewBox="0 0 636 166" fill="none" xmlns="http://www.w3.org/2000/svg">
<path d="M119.544 154.683L76.5295 92.1873L70.4039 83.2911L20.491 10.772H41.9613L82.3265 69.4199L88.4515 78.3162L141.014 154.683H119.544ZM149.89 148.579L95.7131 69.8704L89.5881 60.9687L50.8333 4.66598L47.6214 5.06238e-05H0L11.614 16.8766L63.1426 91.7464L69.2679 100.639L110.67 160.795L113.883 165.455H161.504L149.89 148.579Z" fill="black"/>
<path d="M70.59 83.2911L76.7156 92.1873L69.454 100.639L13.739 165.455H0L63.3287 91.7463L70.59 83.2911Z" fill="black"/>
<path d="M155.954 -0.000206036L95.8964 69.8702L88.6348 78.3159L82.5098 69.4196L89.7713 60.9684L130.454 13.6164L142.215 -0.000206036H155.954Z" fill="black"/>
<path d="M242 40.8125C242 38.6042 242.625 37.0625 243.875 36.1875C245.125 35.2708 247.188 34.8125 250.062 34.8125C251.104 34.8125 251.979 34.9167 252.688 35.125C253.438 35.2917 254.062 35.625 254.562 36.125C255.104 36.625 255.521 37.2917 255.812 38.125C256.146 38.9167 256.417 39.9375 256.625 41.1875C257.125 45.0625 257.667 49.0625 258.25 53.1875C258.875 57.3125 259.521 61.4583 260.188 65.625C260.438 67.5 261.417 68.4375 263.125 68.4375C263.583 68.4375 264.333 68.3958 265.375 68.3125C266.458 68.1875 267.729 68.0625 269.188 67.9375C270.646 67.7708 272.208 67.6042 273.875 67.4375C275.583 67.2708 277.271 67.125 278.938 67C280.646 66.8333 282.25 66.7083 283.75 66.625C285.292 66.5 286.646 66.4375 287.812 66.4375C288.729 66.4375 289.458 66.625 290 67C290.542 67.3333 290.958 67.7917 291.25 68.375C291.583 68.9167 291.792 69.5417 291.875 70.25C292 70.9167 292.062 71.6042 292.062 72.3125C292.062 72.9375 291.938 73.5833 291.688 74.25C291.479 74.9167 291.167 75.5208 290.75 76.0625C290.375 76.5625 289.896 76.9792 289.312 77.3125C288.729 77.6458 288.062 77.8125 287.312 77.8125C283.688 77.8125 280.021 77.9375 276.312 78.1875C272.646 78.3958 268.979 78.6875 265.312 79.0625C263.438 79.3125 262.5 80.25 262.5 81.875C262.5 82 262.521 82.1667 262.562 82.375C262.604 82.5417 262.625 82.6875 262.625 82.8125C263.125 86.4375 263.583 89.8333 264 93C264.458 96.1667 264.833 99 265.125 101.5C265.458 103.958 265.708 106.021 265.875 107.688C266.083 109.312 266.188 110.396 266.188 110.938C266.188 112.438 266.042 113.688 265.75 114.688C265.458 115.729 264.979 116.562 264.312 117.188C263.646 117.854 262.75 118.312 261.625 118.562C260.542 118.854 259.167 119 257.5 119C255.917 119 254.75 118.625 254 117.875C253.25 117.125 252.833 115.979 252.75 114.438C252.5 109.521 252.104 104.583 251.562 99.625C251.021 94.625 250.396 89.6458 249.688 84.6875C249.312 82.8958 248.375 82 246.875 82C246.75 82 246.604 82.0208 246.438 82.0625C246.271 82.1042 246.125 82.125 246 82.125C243.417 82.7083 240.979 83.2917 238.688 83.875C236.396 84.4583 234.25 85.0833 232.25 85.75C231.125 86.125 230.125 86.3958 229.25 86.5625C228.375 86.6875 227.583 86.75 226.875 86.75C225.917 86.75 225.208 86.3333 224.75 85.5C224.292 84.625 224.062 83.5417 224.062 82.25C224.062 81.7917 224.104 81.2708 224.188 80.6875C224.271 80.0625 224.438 79.4583 224.688 78.875C224.896 78.25 225.229 77.6875 225.688 77.1875C226.104 76.6458 226.688 76.2083 227.438 75.875C229.188 75.1667 231.521 74.4375 234.438 73.6875C237.354 72.8958 240.646 72.1667 244.312 71.5C245.146 71.2917 245.792 70.9583 246.25 70.5C246.75 70 247 69.2708 247 68.3125C247 68.1042 247 67.8958 247 67.6875C247 67.4375 246.958 67.1875 246.875 66.9375C246.208 63.1042 245.562 59.625 244.938 56.5C244.354 53.3333 243.833 50.625 243.375 48.375C242.958 46.125 242.625 44.3542 242.375 43.0625C242.125 41.7708 242 41.0208 242 40.8125ZM328.188 86.25C328.188 79.6667 328.979 74.6042 330.562 71.0625C332.146 67.5208 334.417 65.75 337.375 65.75C342.083 65.75 344.438 69.8125 344.438 77.9375C344.438 80.8125 344.271 83.5208 343.938 86.0625C343.646 88.6042 343.208 91.0625 342.625 93.4375C342.542 93.7708 342.479 94.0833 342.438 94.375C342.396 94.6667 342.375 94.9375 342.375 95.1875C342.375 96.0625 342.542 96.8333 342.875 97.5C344.958 102.792 348.812 105.438 354.438 105.438C356.438 105.438 358.312 105 360.062 104.125C361.812 103.25 363.333 102.062 364.625 100.562C365.917 99.0208 366.917 97.2292 367.625 95.1875C368.375 93.1458 368.75 90.9375 368.75 88.5625C368.75 85.8958 368.438 83.6875 367.812 81.9375C367.188 80.1458 366.5 78.625 365.75 77.375C365 76.0833 364.312 74.9167 363.688 73.875C363.062 72.7917 362.75 71.5833 362.75 70.25C362.75 69.625 363.021 68.9792 363.562 68.3125C364.146 67.6042 364.854 66.9583 365.688 66.375C366.562 65.7917 367.5 65.3125 368.5 64.9375C369.542 64.5625 370.521 64.375 371.438 64.375C372.646 64.375 373.833 65.0417 375 66.375C376.208 67.7083 377.271 69.4583 378.188 71.625C379.146 73.75 379.896 76.1875 380.438 78.9375C381.021 81.6875 381.312 84.4583 381.312 87.25C381.312 91.2917 380.562 95.1042 379.062 98.6875C377.562 102.271 375.521 105.417 372.938 108.125C370.354 110.833 367.333 112.979 363.875 114.562C360.458 116.146 356.833 116.938 353 116.938C349.75 116.938 346.854 116.354 344.312 115.188C341.812 114.062 339.5 112.062 337.375 109.188C337.042 108.646 336.708 108.271 336.375 108.062C336.042 107.854 335.708 107.75 335.375 107.75C334.958 107.75 334.583 107.854 334.25 108.062C333.917 108.271 333.562 108.646 333.188 109.188C330.354 112.896 327.312 115.542 324.062 117.125C320.854 118.708 317.312 119.5 313.438 119.5C309.146 119.5 305.271 118.312 301.812 115.938C298.396 113.604 295.479 110.271 293.062 105.938C290.646 101.604 288.792 96.3542 287.5 90.1875C286.208 83.9792 285.562 77.0417 285.562 69.375C285.562 66.25 285.688 63.6667 285.938 61.625C286.188 59.5417 286.646 57.9167 287.312 56.75C287.979 55.5417 288.854 54.7083 289.938 54.25C291.021 53.75 292.417 53.5 294.125 53.5C295.917 53.5 297.208 53.8542 298 54.5625C298.833 55.2292 299.25 56.3958 299.25 58.0625C299.25 59.3542 299.125 60.8125 298.875 62.4375C298.625 64.0208 298.5 65.3958 298.5 66.5625C298.5 72.6042 298.917 78.1667 299.75 83.25C300.625 88.3333 301.812 92.7083 303.312 96.375C304.854 100.042 306.667 102.896 308.75 104.938C310.875 106.979 313.208 108 315.75 108C321.417 108 325.604 105.104 328.312 99.3125C328.562 98.8542 328.729 98.4375 328.812 98.0625C328.896 97.6458 328.938 97.2083 328.938 96.75C328.938 96.5 328.938 96.25 328.938 96C328.938 95.7083 328.896 95.3958 328.812 95.0625C328.604 93.4792 328.438 91.9792 328.312 90.5625C328.229 89.1042 328.188 87.6667 328.188 86.25ZM397.062 49.25C395.854 49.25 394.708 49.0833 393.625 48.75C392.583 48.375 391.667 47.875 390.875 47.25C390.125 46.5833 389.521 45.8125 389.062 44.9375C388.604 44.0625 388.375 43.1042 388.375 42.0625C388.375 40.3125 389.062 38.8958 390.438 37.8125C391.854 36.7292 393.729 36.1875 396.062 36.1875C397.146 36.1875 398.188 36.3958 399.188 36.8125C400.188 37.1875 401.062 37.7083 401.812 38.375C402.604 39.0417 403.229 39.8333 403.688 40.75C404.146 41.625 404.375 42.5417 404.375 43.5C404.375 45.2917 403.708 46.7083 402.375 47.75C401.083 48.75 399.312 49.25 397.062 49.25ZM388.5 68.3125C388.5 66.8542 389.125 65.6667 390.375 64.75C391.667 63.7917 393.354 63.3125 395.438 63.3125C399.188 63.3125 401.188 64.6042 401.438 67.1875C401.604 68.9792 401.771 71 401.938 73.25C402.146 75.5 402.333 77.8958 402.5 80.4375C402.708 82.9375 402.875 85.5417 403 88.25C403.167 90.9167 403.312 93.5625 403.438 96.1875C403.562 98.7708 403.667 101.271 403.75 103.688C403.833 106.104 403.875 108.312 403.875 110.312C403.875 112.396 403.125 113.958 401.625 115C400.167 116.042 398.021 116.562 395.188 116.562C393.896 116.562 392.875 116.25 392.125 115.625C391.417 115.042 391.062 114.167 391.062 113C391.062 107.25 390.917 101.875 390.625 96.875C390.375 91.8333 390.083 87.3542 389.75 83.4375C389.458 79.5208 389.167 76.2708 388.875 73.6875C388.625 71.0625 388.5 69.2708 388.5 68.3125ZM421.25 40.8125C421.25 38.6042 421.875 37.0625 423.125 36.1875C424.375 35.2708 426.438 34.8125 429.312 34.8125C430.354 34.8125 431.229 34.9167 431.938 35.125C432.688 35.2917 433.312 35.625 433.812 36.125C434.354 36.625 434.771 37.2917 435.062 38.125C435.396 38.9167 435.667 39.9375 435.875 41.1875C436.375 45.0625 436.917 49.0625 437.5 53.1875C438.125 57.3125 438.771 61.4583 439.438 65.625C439.688 67.5 440.667 68.4375 442.375 68.4375C442.833 68.4375 443.583 68.3958 444.625 68.3125C445.708 68.1875 446.979 68.0625 448.438 67.9375C449.896 67.7708 451.458 67.6042 453.125 67.4375C454.833 67.2708 456.521 67.125 458.188 67C459.896 66.8333 461.5 66.7083 463 66.625C464.542 66.5 465.896 66.4375 467.062 66.4375C467.979 66.4375 468.708 66.625 469.25 67C469.792 67.3333 470.208 67.7917 470.5 68.375C470.833 68.9167 471.042 69.5417 471.125 70.25C471.25 70.9167 471.312 71.6042 471.312 72.3125C471.312 72.9375 471.188 73.5833 470.938 74.25C470.729 74.9167 470.417 75.5208 470 76.0625C469.625 76.5625 469.146 76.9792 468.562 77.3125C467.979 77.6458 467.312 77.8125 466.562 77.8125C462.938 77.8125 459.271 77.9375 455.562 78.1875C451.896 78.3958 448.229 78.6875 444.562 79.0625C442.688 79.3125 441.75 80.25 441.75 81.875C441.75 82 441.771 82.1667 441.812 82.375C441.854 82.5417 441.875 82.6875 441.875 82.8125C442.375 86.4375 442.833 89.8333 443.25 93C443.708 96.1667 444.083 99 444.375 101.5C444.708 103.958 444.958 106.021 445.125 107.688C445.333 109.312 445.438 110.396 445.438 110.938C445.438 112.438 445.292 113.688 445 114.688C444.708 115.729 444.229 116.562 443.562 117.188C442.896 117.854 442 118.312 440.875 118.562C439.792 118.854 438.417 119 436.75 119C435.167 119 434 118.625 433.25 117.875C432.5 117.125 432.083 115.979 432 114.438C431.75 109.521 431.354 104.583 430.812 99.625C430.271 94.625 429.646 89.6458 428.938 84.6875C428.562 82.8958 427.625 82 426.125 82C426 82 425.854 82.0208 425.688 82.0625C425.521 82.1042 425.375 82.125 425.25 82.125C422.667 82.7083 420.229 83.2917 417.938 83.875C415.646 84.4583 413.5 85.0833 411.5 85.75C410.375 86.125 409.375 86.3958 408.5 86.5625C407.625 86.6875 406.833 86.75 406.125 86.75C405.167 86.75 404.458 86.3333 404 85.5C403.542 84.625 403.312 83.5417 403.312 82.25C403.312 81.7917 403.354 81.2708 403.438 80.6875C403.521 80.0625 403.688 79.4583 403.938 78.875C404.146 78.25 404.479 77.6875 404.938 77.1875C405.354 76.6458 405.938 76.2083 406.688 75.875C408.438 75.1667 410.771 74.4375 413.688 73.6875C416.604 72.8958 419.896 72.1667 423.562 71.5C424.396 71.2917 425.042 70.9583 425.5 70.5C426 70 426.25 69.2708 426.25 68.3125C426.25 68.1042 426.25 67.8958 426.25 67.6875C426.25 67.4375 426.208 67.1875 426.125 66.9375C425.458 63.1042 424.812 59.625 424.188 56.5C423.604 53.3333 423.083 50.625 422.625 48.375C422.208 46.125 421.875 44.3542 421.625 43.0625C421.375 41.7708 421.25 41.0208 421.25 40.8125ZM473.5 40.8125C473.5 38.6042 474.125 37.0625 475.375 36.1875C476.625 35.2708 478.688 34.8125 481.562 34.8125C482.604 34.8125 483.479 34.9167 484.188 35.125C484.938 35.2917 485.562 35.625 486.062 36.125C486.604 36.625 487.021 37.2917 487.312 38.125C487.646 38.9167 487.917 39.9375 488.125 41.1875C488.625 45.0625 489.167 49.0625 489.75 53.1875C490.375 57.3125 491.021 61.4583 491.688 65.625C491.938 67.5 492.917 68.4375 494.625 68.4375C495.083 68.4375 495.833 68.3958 496.875 68.3125C497.958 68.1875 499.229 68.0625 500.688 67.9375C502.146 67.7708 503.708 67.6042 505.375 67.4375C507.083 67.2708 508.771 67.125 510.438 67C512.146 66.8333 513.75 66.7083 515.25 66.625C516.792 66.5 518.146 66.4375 519.312 66.4375C520.229 66.4375 520.958 66.625 521.5 67C522.042 67.3333 522.458 67.7917 522.75 68.375C523.083 68.9167 523.292 69.5417 523.375 70.25C523.5 70.9167 523.562 71.6042 523.562 72.3125C523.562 72.9375 523.438 73.5833 523.188 74.25C522.979 74.9167 522.667 75.5208 522.25 76.0625C521.875 76.5625 521.396 76.9792 520.812 77.3125C520.229 77.6458 519.562 77.8125 518.812 77.8125C515.188 77.8125 511.521 77.9375 507.812 78.1875C504.146 78.3958 500.479 78.6875 496.812 79.0625C494.938 79.3125 494 80.25 494 81.875C494 82 494.021 82.1667 494.062 82.375C494.104 82.5417 494.125 82.6875 494.125 82.8125C494.625 86.4375 495.083 89.8333 495.5 93C495.958 96.1667 496.333 99 496.625 101.5C496.958 103.958 497.208 106.021 497.375 107.688C497.583 109.312 497.688 110.396 497.688 110.938C497.688 112.438 497.542 113.688 497.25 114.688C496.958 115.729 496.479 116.562 495.812 117.188C495.146 117.854 494.25 118.312 493.125 118.562C492.042 118.854 490.667 119 489 119C487.417 119 486.25 118.625 485.5 117.875C484.75 117.125 484.333 115.979 484.25 114.438C484 109.521 483.604 104.583 483.062 99.625C482.521 94.625 481.896 89.6458 481.188 84.6875C480.812 82.8958 479.875 82 478.375 82C478.25 82 478.104 82.0208 477.938 82.0625C477.771 82.1042 477.625 82.125 477.5 82.125C474.917 82.7083 472.479 83.2917 470.188 83.875C467.896 84.4583 465.75 85.0833 463.75 85.75C462.625 86.125 461.625 86.3958 460.75 86.5625C459.875 86.6875 459.083 86.75 458.375 86.75C457.417 86.75 456.708 86.3333 456.25 85.5C455.792 84.625 455.562 83.5417 455.562 82.25C455.562 81.7917 455.604 81.2708 455.688 80.6875C455.771 80.0625 455.938 79.4583 456.188 78.875C456.396 78.25 456.729 77.6875 457.188 77.1875C457.604 76.6458 458.188 76.2083 458.938 75.875C460.688 75.1667 463.021 74.4375 465.938 73.6875C468.854 72.8958 472.146 72.1667 475.812 71.5C476.646 71.2917 477.292 70.9583 477.75 70.5C478.25 70 478.5 69.2708 478.5 68.3125C478.5 68.1042 478.5 67.8958 478.5 67.6875C478.5 67.4375 478.458 67.1875 478.375 66.9375C477.708 63.1042 477.062 59.625 476.438 56.5C475.854 53.3333 475.333 50.625 474.875 48.375C474.458 46.125 474.125 44.3542 473.875 43.0625C473.625 41.7708 473.5 41.0208 473.5 40.8125ZM573.125 99.3125C574.333 98.2708 575.521 97.75 576.688 97.75C577.354 97.75 577.958 97.9167 578.5 98.25C579.042 98.5833 579.646 99.1042 580.312 99.8125C580.938 100.771 581.375 101.562 581.625 102.188C581.917 102.771 582.062 103.354 582.062 103.938C582.062 105.188 581.438 106.375 580.188 107.5C578.188 109.167 576.021 110.667 573.688 112C571.354 113.292 568.917 114.396 566.375 115.312C563.833 116.229 561.208 116.917 558.5 117.375C555.792 117.875 553.104 118.125 550.438 118.125C547.062 118.125 543.896 117.688 540.938 116.812C537.979 115.979 535.333 114.771 533 113.188C530.708 111.604 528.771 109.708 527.188 107.5C525.604 105.25 524.479 102.729 523.812 99.9375C523.438 98.7708 523.083 98.0208 522.75 97.6875C522.458 97.3125 521.958 97.125 521.25 97.125C519.708 97.125 518.521 96.75 517.688 96C516.854 95.25 516.438 94.1667 516.438 92.75C516.438 92.1667 516.479 91.7917 516.562 91.625L516.688 90.375C516.896 88.875 517.292 87.7917 517.875 87.125C518.5 86.4583 519.458 86.125 520.75 86.125H521.688C523.438 86.125 524.667 85.3125 525.375 83.6875C526.667 80.8125 528.312 78.1875 530.312 75.8125C532.312 73.4375 534.562 71.4167 537.062 69.75C539.562 68.0417 542.229 66.7292 545.062 65.8125C547.938 64.8542 550.854 64.375 553.812 64.375C556.896 64.375 559.771 64.8333 562.438 65.75C565.146 66.625 567.5 67.8542 569.5 69.4375C571.5 71.0208 573.062 72.875 574.188 75C575.354 77.125 575.938 79.4167 575.938 81.875C575.938 83.5833 575.604 85.1458 574.938 86.5625C574.271 87.9792 573.312 89.2292 572.062 90.3125C570.812 91.3542 569.292 92.2083 567.5 92.875C565.75 93.5417 563.75 93.9792 561.5 94.1875L539.812 96.375C538.979 96.375 538.292 96.5833 537.75 97C537.25 97.4167 537 97.9792 537 98.6875C537 99.7708 537.396 100.812 538.188 101.812C539.021 102.812 540.104 103.708 541.438 104.5C542.812 105.25 544.375 105.854 546.125 106.312C547.917 106.771 549.75 107 551.625 107C553.417 107 555.25 106.833 557.125 106.5C559.042 106.125 560.917 105.604 562.75 104.938C564.625 104.271 566.438 103.479 568.188 102.562C569.938 101.604 571.583 100.521 573.125 99.3125ZM559.188 83.1875C559.812 83.0625 560.354 82.7708 560.812 82.3125C561.271 81.8125 561.5 81.2083 561.5 80.5C561.5 79.875 561.271 79.2917 560.812 78.75C560.354 78.2083 559.729 77.7292 558.938 77.3125C558.146 76.8542 557.229 76.5 556.188 76.25C555.146 76 554.042 75.875 552.875 75.875C551.167 75.875 549.417 76.125 547.625 76.625C545.833 77.125 544.208 77.7917 542.75 78.625C541.292 79.4167 540.104 80.3125 539.188 81.3125C538.271 82.2708 537.812 83.2292 537.812 84.1875C537.812 85.1458 538.396 85.625 539.562 85.625C540.271 85.625 541.417 85.5417 543 85.375C544.583 85.2083 546.333 85.0208 548.25 84.8125C550.167 84.5625 552.104 84.2917 554.062 84C556.021 83.7083 557.729 83.4375 559.188 83.1875ZM619.938 66.25C618.396 66.25 617.042 66.6667 615.875 67.5C614.708 68.2917 613.708 69.4167 612.875 70.875C612.042 72.2917 611.354 73.9792 610.812 75.9375C610.271 77.8542 609.833 79.9583 609.5 82.25C609.167 84.5417 608.938 86.9375 608.812 89.4375C608.688 91.9375 608.625 94.4583 608.625 97C608.625 100.333 608.75 103.625 609 106.875C609.292 110.083 609.438 113.062 609.438 115.812C609.438 117.604 608.771 119 607.438 120C606.104 121.042 604.208 121.562 601.75 121.562C601.292 121.562 600.771 121.521 600.188 121.438C599.604 121.354 599.042 121.188 598.5 120.938C598 120.688 597.542 120.333 597.125 119.875C596.75 119.458 596.542 118.875 596.5 118.125C596.125 114.458 595.583 110.708 594.875 106.875C594.167 103.042 593.271 99.2292 592.188 95.4375C591.146 91.6042 589.875 87.8125 588.375 84.0625C586.917 80.3125 585.229 76.6458 583.312 73.0625C582.979 72.4375 582.688 71.8542 582.438 71.3125C582.229 70.7708 582.125 70.25 582.125 69.75C582.125 69.125 582.396 68.4583 582.938 67.75C583.521 67 584.229 66.3125 585.062 65.6875C585.938 65.0625 586.875 64.5625 587.875 64.1875C588.917 63.7708 589.917 63.5625 590.875 63.5625C592.458 63.5625 593.854 64.6667 595.062 66.875C596.271 69.0417 597.396 72.5208 598.438 77.3125C598.646 78.1458 598.812 78.7292 598.938 79.0625C599.062 79.3958 599.229 79.5625 599.438 79.5625C599.896 79.5625 600.188 78.8542 600.312 77.4375C600.812 73.4792 601.667 70.0833 602.875 67.25C604.083 64.375 605.583 62.0208 607.375 60.1875C609.208 58.3125 611.292 56.9375 613.625 56.0625C616 55.1875 618.604 54.75 621.438 54.75C623.062 54.75 624.708 54.8958 626.375 55.1875C628.042 55.4792 629.542 55.9167 630.875 56.5C632.208 57.0833 633.292 57.7917 634.125 58.625C634.958 59.4583 635.375 60.3958 635.375 61.4375C635.375 62.1875 635.208 63.0833 634.875 64.125C634.583 65.125 634.188 66.1042 633.688 67.0625C633.188 67.9792 632.604 68.7708 631.938 69.4375C631.312 70.0625 630.667 70.375 630 70.375C629.25 70.375 628.521 70.1667 627.812 69.75C627.104 69.2917 626.333 68.8125 625.5 68.3125C624.708 67.8125 623.854 67.3542 622.938 66.9375C622.062 66.4792 621.062 66.25 619.938 66.25Z" fill="black"/>
</svg>
