<svg width="750" height="159" viewBox="0 0 750 159" fill="none" xmlns="http://www.w3.org/2000/svg">
<path d="M187.63 3.48154C186.957 1.51104 186.152 0.992501 184.896 0.499878C182.149 -0.511297 177.497 1.01842 177.497 1.01842C177.497 1.01842 12.7743 59.8221 3.36381 66.3299C1.33759 67.73 0.658721 68.5597 0.321887 69.519C-1.30484 74.1341 3.76332 76.1824 3.76332 76.1824L46.2201 89.924C46.2201 89.924 47.8024 90.1574 48.3664 89.7944C58.0249 83.7273 145.542 28.8646 150.589 27.0238C151.385 26.7904 151.975 27.0497 151.819 27.5942C149.798 34.6465 73.7856 101.721 73.7856 101.721C73.7856 101.721 73.4958 102.084 73.313 102.499L73.2138 102.447L69.2527 144.268C69.2527 144.268 67.5921 157.076 80.4936 144.268C89.5959 135.219 98.4032 127.649 102.811 123.993C117.41 134.001 133.121 145.072 139.902 150.854C143.307 153.758 146.155 154.224 148.5 154.147C154.936 153.913 156.733 146.887 156.733 146.887C156.733 146.887 186.75 26.9201 187.753 10.845C187.852 9.26339 187.988 8.27812 187.998 7.18916C188.017 5.68537 187.876 4.18158 187.63 3.48154Z" fill="black"/>
<path d="M268 34.8125C268 32.6042 268.625 31.0625 269.875 30.1875C271.125 29.2708 273.188 28.8125 276.062 28.8125C277.104 28.8125 277.979 28.9167 278.688 29.125C279.438 29.2917 280.062 29.625 280.562 30.125C281.104 30.625 281.521 31.2917 281.812 32.125C282.146 32.9167 282.417 33.9375 282.625 35.1875C283.125 39.0625 283.667 43.0625 284.25 47.1875C284.875 51.3125 285.521 55.4583 286.188 59.625C286.438 61.5 287.417 62.4375 289.125 62.4375C289.583 62.4375 290.333 62.3958 291.375 62.3125C292.458 62.1875 293.729 62.0625 295.188 61.9375C296.646 61.7708 298.208 61.6042 299.875 61.4375C301.583 61.2708 303.271 61.125 304.938 61C306.646 60.8333 308.25 60.7083 309.75 60.625C311.292 60.5 312.646 60.4375 313.812 60.4375C314.729 60.4375 315.458 60.625 316 61C316.542 61.3333 316.958 61.7917 317.25 62.375C317.583 62.9167 317.792 63.5417 317.875 64.25C318 64.9167 318.062 65.6042 318.062 66.3125C318.062 66.9375 317.938 67.5833 317.688 68.25C317.479 68.9167 317.167 69.5208 316.75 70.0625C316.375 70.5625 315.896 70.9792 315.312 71.3125C314.729 71.6458 314.062 71.8125 313.312 71.8125C309.688 71.8125 306.021 71.9375 302.312 72.1875C298.646 72.3958 294.979 72.6875 291.312 73.0625C289.438 73.3125 288.5 74.25 288.5 75.875C288.5 76 288.521 76.1667 288.562 76.375C288.604 76.5417 288.625 76.6875 288.625 76.8125C289.125 80.4375 289.583 83.8333 290 87C290.458 90.1667 290.833 93 291.125 95.5C291.458 97.9583 291.708 100.021 291.875 101.688C292.083 103.312 292.188 104.396 292.188 104.938C292.188 106.438 292.042 107.688 291.75 108.688C291.458 109.729 290.979 110.562 290.312 111.188C289.646 111.854 288.75 112.312 287.625 112.562C286.542 112.854 285.167 113 283.5 113C281.917 113 280.75 112.625 280 111.875C279.25 111.125 278.833 109.979 278.75 108.438C278.5 103.521 278.104 98.5833 277.562 93.625C277.021 88.625 276.396 83.6458 275.688 78.6875C275.312 76.8958 274.375 76 272.875 76C272.75 76 272.604 76.0208 272.438 76.0625C272.271 76.1042 272.125 76.125 272 76.125C269.417 76.7083 266.979 77.2917 264.688 77.875C262.396 78.4583 260.25 79.0833 258.25 79.75C257.125 80.125 256.125 80.3958 255.25 80.5625C254.375 80.6875 253.583 80.75 252.875 80.75C251.917 80.75 251.208 80.3333 250.75 79.5C250.292 78.625 250.062 77.5417 250.062 76.25C250.062 75.7917 250.104 75.2708 250.188 74.6875C250.271 74.0625 250.438 73.4583 250.688 72.875C250.896 72.25 251.229 71.6875 251.688 71.1875C252.104 70.6458 252.688 70.2083 253.438 69.875C255.188 69.1667 257.521 68.4375 260.438 67.6875C263.354 66.8958 266.646 66.1667 270.312 65.5C271.146 65.2917 271.792 64.9583 272.25 64.5C272.75 64 273 63.2708 273 62.3125C273 62.1042 273 61.8958 273 61.6875C273 61.4375 272.958 61.1875 272.875 60.9375C272.208 57.1042 271.562 53.625 270.938 50.5C270.354 47.3333 269.833 44.625 269.375 42.375C268.958 40.125 268.625 38.3542 268.375 37.0625C268.125 35.7708 268 35.0208 268 34.8125ZM367.625 93.3125C368.833 92.2708 370.021 91.75 371.188 91.75C371.854 91.75 372.458 91.9167 373 92.25C373.542 92.5833 374.146 93.1042 374.812 93.8125C375.438 94.7708 375.875 95.5625 376.125 96.1875C376.417 96.7708 376.562 97.3542 376.562 97.9375C376.562 99.1875 375.938 100.375 374.688 101.5C372.688 103.167 370.521 104.667 368.188 106C365.854 107.292 363.417 108.396 360.875 109.312C358.333 110.229 355.708 110.917 353 111.375C350.292 111.875 347.604 112.125 344.938 112.125C341.562 112.125 338.396 111.688 335.438 110.812C332.479 109.979 329.833 108.771 327.5 107.188C325.208 105.604 323.271 103.708 321.688 101.5C320.104 99.25 318.979 96.7292 318.312 93.9375C317.938 92.7708 317.583 92.0208 317.25 91.6875C316.958 91.3125 316.458 91.125 315.75 91.125C314.208 91.125 313.021 90.75 312.188 90C311.354 89.25 310.938 88.1667 310.938 86.75C310.938 86.1667 310.979 85.7917 311.062 85.625L311.188 84.375C311.396 82.875 311.792 81.7917 312.375 81.125C313 80.4583 313.958 80.125 315.25 80.125H316.188C317.938 80.125 319.167 79.3125 319.875 77.6875C321.167 74.8125 322.812 72.1875 324.812 69.8125C326.812 67.4375 329.062 65.4167 331.562 63.75C334.062 62.0417 336.729 60.7292 339.562 59.8125C342.438 58.8542 345.354 58.375 348.312 58.375C351.396 58.375 354.271 58.8333 356.938 59.75C359.646 60.625 362 61.8542 364 63.4375C366 65.0208 367.562 66.875 368.688 69C369.854 71.125 370.438 73.4167 370.438 75.875C370.438 77.5833 370.104 79.1458 369.438 80.5625C368.771 81.9792 367.812 83.2292 366.562 84.3125C365.312 85.3542 363.792 86.2083 362 86.875C360.25 87.5417 358.25 87.9792 356 88.1875L334.312 90.375C333.479 90.375 332.792 90.5833 332.25 91C331.75 91.4167 331.5 91.9792 331.5 92.6875C331.5 93.7708 331.896 94.8125 332.688 95.8125C333.521 96.8125 334.604 97.7083 335.938 98.5C337.312 99.25 338.875 99.8542 340.625 100.312C342.417 100.771 344.25 101 346.125 101C347.917 101 349.75 100.833 351.625 100.5C353.542 100.125 355.417 99.6042 357.25 98.9375C359.125 98.2708 360.938 97.4792 362.688 96.5625C364.438 95.6042 366.083 94.5208 367.625 93.3125ZM353.688 77.1875C354.312 77.0625 354.854 76.7708 355.312 76.3125C355.771 75.8125 356 75.2083 356 74.5C356 73.875 355.771 73.2917 355.312 72.75C354.854 72.2083 354.229 71.7292 353.438 71.3125C352.646 70.8542 351.729 70.5 350.688 70.25C349.646 70 348.542 69.875 347.375 69.875C345.667 69.875 343.917 70.125 342.125 70.625C340.333 71.125 338.708 71.7917 337.25 72.625C335.792 73.4167 334.604 74.3125 333.688 75.3125C332.771 76.2708 332.312 77.2292 332.312 78.1875C332.312 79.1458 332.896 79.625 334.062 79.625C334.771 79.625 335.917 79.5417 337.5 79.375C339.083 79.2083 340.833 79.0208 342.75 78.8125C344.667 78.5625 346.604 78.2917 348.562 78C350.521 77.7083 352.229 77.4375 353.688 77.1875ZM377.188 35.8125C377.188 33.6458 377.812 32.1042 379.062 31.1875C380.312 30.2708 382.375 29.8125 385.25 29.8125C386.25 29.8125 387.125 29.9167 387.875 30.125C388.625 30.3333 389.25 30.6875 389.75 31.1875C390.25 31.6458 390.646 32.2917 390.938 33.125C391.271 33.9167 391.542 34.9375 391.75 36.1875C392.292 39.8958 392.833 43.7917 393.375 47.875C393.958 51.9167 394.5 55.9583 395 60C395.542 64 396.042 67.9167 396.5 71.75C396.958 75.5417 397.354 79.0833 397.688 82.375C398.062 85.625 398.333 88.5208 398.5 91.0625C398.708 93.5625 398.812 95.5417 398.812 97C398.812 98.5 398.667 99.7708 398.375 100.812C398.125 101.854 397.667 102.688 397 103.312C396.375 103.938 395.542 104.396 394.5 104.688C393.5 104.938 392.25 105.062 390.75 105.062C389.292 105.062 388.125 104.688 387.25 103.938C386.417 103.188 386 102.042 386 100.5C386 98.9167 385.875 96.8125 385.625 94.1875C385.375 91.5208 385.042 88.5625 384.625 85.3125C384.208 82.0625 383.729 78.6042 383.188 74.9375C382.688 71.2708 382.146 67.6458 381.562 64.0625C381.021 60.4792 380.479 57.0417 379.938 53.75C379.438 50.4167 378.979 47.4792 378.562 44.9375C378.146 42.3542 377.812 40.25 377.562 38.625C377.312 36.9583 377.188 36.0208 377.188 35.8125ZM462 93.3125C463.208 92.2708 464.396 91.75 465.562 91.75C466.229 91.75 466.833 91.9167 467.375 92.25C467.917 92.5833 468.521 93.1042 469.188 93.8125C469.812 94.7708 470.25 95.5625 470.5 96.1875C470.792 96.7708 470.938 97.3542 470.938 97.9375C470.938 99.1875 470.312 100.375 469.062 101.5C467.062 103.167 464.896 104.667 462.562 106C460.229 107.292 457.792 108.396 455.25 109.312C452.708 110.229 450.083 110.917 447.375 111.375C444.667 111.875 441.979 112.125 439.312 112.125C435.938 112.125 432.771 111.688 429.812 110.812C426.854 109.979 424.208 108.771 421.875 107.188C419.583 105.604 417.646 103.708 416.062 101.5C414.479 99.25 413.354 96.7292 412.688 93.9375C412.312 92.7708 411.958 92.0208 411.625 91.6875C411.333 91.3125 410.833 91.125 410.125 91.125C408.583 91.125 407.396 90.75 406.562 90C405.729 89.25 405.312 88.1667 405.312 86.75C405.312 86.1667 405.354 85.7917 405.438 85.625L405.562 84.375C405.771 82.875 406.167 81.7917 406.75 81.125C407.375 80.4583 408.333 80.125 409.625 80.125H410.562C412.312 80.125 413.542 79.3125 414.25 77.6875C415.542 74.8125 417.188 72.1875 419.188 69.8125C421.188 67.4375 423.438 65.4167 425.938 63.75C428.438 62.0417 431.104 60.7292 433.938 59.8125C436.812 58.8542 439.729 58.375 442.688 58.375C445.771 58.375 448.646 58.8333 451.312 59.75C454.021 60.625 456.375 61.8542 458.375 63.4375C460.375 65.0208 461.938 66.875 463.062 69C464.229 71.125 464.812 73.4167 464.812 75.875C464.812 77.5833 464.479 79.1458 463.812 80.5625C463.146 81.9792 462.188 83.2292 460.938 84.3125C459.688 85.3542 458.167 86.2083 456.375 86.875C454.625 87.5417 452.625 87.9792 450.375 88.1875L428.688 90.375C427.854 90.375 427.167 90.5833 426.625 91C426.125 91.4167 425.875 91.9792 425.875 92.6875C425.875 93.7708 426.271 94.8125 427.062 95.8125C427.896 96.8125 428.979 97.7083 430.312 98.5C431.688 99.25 433.25 99.8542 435 100.312C436.792 100.771 438.625 101 440.5 101C442.292 101 444.125 100.833 446 100.5C447.917 100.125 449.792 99.6042 451.625 98.9375C453.5 98.2708 455.312 97.4792 457.062 96.5625C458.812 95.6042 460.458 94.5208 462 93.3125ZM448.062 77.1875C448.688 77.0625 449.229 76.7708 449.688 76.3125C450.146 75.8125 450.375 75.2083 450.375 74.5C450.375 73.875 450.146 73.2917 449.688 72.75C449.229 72.2083 448.604 71.7292 447.812 71.3125C447.021 70.8542 446.104 70.5 445.062 70.25C444.021 70 442.917 69.875 441.75 69.875C440.042 69.875 438.292 70.125 436.5 70.625C434.708 71.125 433.083 71.7917 431.625 72.625C430.167 73.4167 428.979 74.3125 428.062 75.3125C427.146 76.2708 426.688 77.2292 426.688 78.1875C426.688 79.1458 427.271 79.625 428.438 79.625C429.146 79.625 430.292 79.5417 431.875 79.375C433.458 79.2083 435.208 79.0208 437.125 78.8125C439.042 78.5625 440.979 78.2917 442.938 78C444.896 77.7083 446.604 77.4375 448.062 77.1875ZM508 58.25C510 58.25 511.896 58.4167 513.688 58.75C515.479 59.0417 517.104 59.375 518.562 59.75C520.021 60.0833 521.271 60.4167 522.312 60.75C523.354 61.0417 524.104 61.1875 524.562 61.1875C524.938 61.1875 525.292 61 525.625 60.625C525.958 60.2083 526.375 59.7708 526.875 59.3125C527.375 58.8542 528.042 58.4375 528.875 58.0625C529.708 57.6458 530.812 57.4375 532.188 57.4375C533.771 57.4375 535.021 57.8542 535.938 58.6875C536.854 59.4792 537.312 60.4792 537.312 61.6875C537.312 76.9375 536.792 89.8958 535.75 100.562C534.708 111.188 533.021 119.833 530.688 126.5C528.354 133.167 525.333 138 521.625 141C517.917 144 513.417 145.5 508.125 145.5C505.708 145.5 503.188 144.958 500.562 143.875C497.979 142.792 495.604 141.396 493.438 139.688C491.271 138.021 489.479 136.167 488.062 134.125C486.688 132.083 486 130.125 486 128.25C486 127.625 486.333 126.896 487 126.062C487.667 125.229 488.479 124.417 489.438 123.625C490.396 122.833 491.396 122.167 492.438 121.625C493.479 121.083 494.375 120.812 495.125 120.812C495.917 120.812 496.583 121.125 497.125 121.75C497.667 122.417 498.167 123.229 498.625 124.188C499.125 125.146 499.625 126.188 500.125 127.312C500.625 128.479 501.25 129.542 502 130.5C502.75 131.458 503.667 132.25 504.75 132.875C505.833 133.542 507.188 133.875 508.812 133.875C517.896 133.875 523.229 120 524.812 92.25C524.812 91 524.458 90.375 523.75 90.375C523.167 90.375 522.708 90.6667 522.375 91.25C518.458 96.5417 513.875 100.521 508.625 103.188C503.417 105.812 497.625 107.125 491.25 107.125C488.292 107.125 485.562 106.688 483.062 105.812C480.562 104.896 478.396 103.646 476.562 102.062C474.771 100.438 473.375 98.5208 472.375 96.3125C471.375 94.0625 470.875 91.6042 470.875 88.9375C470.875 86.3125 471.333 83.7292 472.25 81.1875C473.208 78.6042 474.521 76.1875 476.188 73.9375C477.896 71.6458 479.917 69.5417 482.25 67.625C484.583 65.7083 487.125 64.0625 489.875 62.6875C492.625 61.2708 495.521 60.1875 498.562 59.4375C501.646 58.6458 504.792 58.25 508 58.25ZM493.188 95.625C498.896 95.625 504.125 93.8333 508.875 90.25C513.625 86.625 517.688 81.375 521.062 74.5C521.146 74.25 521.208 74.0625 521.25 73.9375C521.292 73.7708 521.312 73.6042 521.312 73.4375C521.312 73.0208 520.875 72.5833 520 72.125C519.125 71.6667 517.979 71.2708 516.562 70.9375C515.146 70.6042 513.521 70.3333 511.688 70.125C509.896 69.875 508.083 69.75 506.25 69.75C503.292 69.75 500.438 70.25 497.688 71.25C494.938 72.25 492.5 73.5833 490.375 75.25C488.25 76.9167 486.542 78.8125 485.25 80.9375C483.958 83.0625 483.312 85.2708 483.312 87.5625C483.312 90.0208 484.208 91.9792 486 93.4375C487.833 94.8958 490.229 95.625 493.188 95.625ZM581.688 60.25C580.146 60.25 578.792 60.6667 577.625 61.5C576.458 62.2917 575.458 63.4167 574.625 64.875C573.792 66.2917 573.104 67.9792 572.562 69.9375C572.021 71.8542 571.583 73.9583 571.25 76.25C570.917 78.5417 570.688 80.9375 570.562 83.4375C570.438 85.9375 570.375 88.4583 570.375 91C570.375 94.3333 570.5 97.625 570.75 100.875C571.042 104.083 571.188 107.062 571.188 109.812C571.188 111.604 570.521 113 569.188 114C567.854 115.042 565.958 115.562 563.5 115.562C563.042 115.562 562.521 115.521 561.938 115.438C561.354 115.354 560.792 115.188 560.25 114.938C559.75 114.688 559.292 114.333 558.875 113.875C558.5 113.458 558.292 112.875 558.25 112.125C557.875 108.458 557.333 104.708 556.625 100.875C555.917 97.0417 555.021 93.2292 553.938 89.4375C552.896 85.6042 551.625 81.8125 550.125 78.0625C548.667 74.3125 546.979 70.6458 545.062 67.0625C544.729 66.4375 544.438 65.8542 544.188 65.3125C543.979 64.7708 543.875 64.25 543.875 63.75C543.875 63.125 544.146 62.4583 544.688 61.75C545.271 61 545.979 60.3125 546.812 59.6875C547.688 59.0625 548.625 58.5625 549.625 58.1875C550.667 57.7708 551.667 57.5625 552.625 57.5625C554.208 57.5625 555.604 58.6667 556.812 60.875C558.021 63.0417 559.146 66.5208 560.188 71.3125C560.396 72.1458 560.562 72.7292 560.688 73.0625C560.812 73.3958 560.979 73.5625 561.188 73.5625C561.646 73.5625 561.938 72.8542 562.062 71.4375C562.562 67.4792 563.417 64.0833 564.625 61.25C565.833 58.375 567.333 56.0208 569.125 54.1875C570.958 52.3125 573.042 50.9375 575.375 50.0625C577.75 49.1875 580.354 48.75 583.188 48.75C584.812 48.75 586.458 48.8958 588.125 49.1875C589.792 49.4792 591.292 49.9167 592.625 50.5C593.958 51.0833 595.042 51.7917 595.875 52.625C596.708 53.4583 597.125 54.3958 597.125 55.4375C597.125 56.1875 596.958 57.0833 596.625 58.125C596.333 59.125 595.938 60.1042 595.438 61.0625C594.938 61.9792 594.354 62.7708 593.688 63.4375C593.062 64.0625 592.417 64.375 591.75 64.375C591 64.375 590.271 64.1667 589.562 63.75C588.854 63.2917 588.083 62.8125 587.25 62.3125C586.458 61.8125 585.604 61.3542 584.688 60.9375C583.812 60.4792 582.812 60.25 581.688 60.25ZM632.438 52.375C634.729 52.375 636.938 52.7292 639.062 53.4375C641.188 54.1458 643.062 55.125 644.688 56.375C646.312 57.625 647.604 59.125 648.562 60.875C649.562 62.625 650.062 64.5625 650.062 66.6875C650.062 67.5625 649.854 68.4167 649.438 69.25C649.062 70.0417 648.542 70.75 647.875 71.375C647.208 71.9583 646.438 72.4375 645.562 72.8125C644.729 73.1458 643.854 73.3125 642.938 73.3125C642.854 73.3125 642.771 73.3333 642.688 73.375C642.646 73.375 642.583 73.375 642.5 73.375C642.417 73.4167 642.333 73.4375 642.25 73.4375L642.5 78.4375C642.667 84.3958 643.5 88.75 645 91.5C646.542 94.25 648.542 95.625 651 95.625C651.875 95.625 652.646 95.5417 653.312 95.375C654.021 95.2083 654.667 95.0208 655.25 94.8125C655.875 94.5625 656.458 94.3542 657 94.1875C657.542 94.0208 658.083 93.9375 658.625 93.9375C659.583 93.9375 660.417 94.3542 661.125 95.1875C661.875 96.0208 662.25 97.0208 662.25 98.1875C662.25 99.3542 661.792 100.521 660.875 101.688C660 102.854 658.833 103.917 657.375 104.875C655.917 105.792 654.271 106.542 652.438 107.125C650.604 107.708 648.75 108 646.875 108C643.625 108 640.771 106.667 638.312 104C635.854 101.292 634.104 97.3333 633.062 92.125C632.812 91.2917 632.479 90.875 632.062 90.875C631.562 90.875 631.125 91.125 630.75 91.625C626.625 96.8333 622.229 100.75 617.562 103.375C612.896 105.958 608.292 107.25 603.75 107.25C601.625 107.25 599.708 106.938 598 106.312C596.292 105.688 594.833 104.812 593.625 103.688C592.458 102.521 591.542 101.125 590.875 99.5C590.25 97.8333 589.938 95.9792 589.938 93.9375C589.938 91.0625 590.562 88.0417 591.812 84.875C593.104 81.7083 594.833 78.5833 597 75.5C599.167 72.4167 601.667 69.4792 604.5 66.6875C607.375 63.8958 610.375 61.4375 613.5 59.3125C616.667 57.1875 619.875 55.5 623.125 54.25C626.375 53 629.479 52.375 632.438 52.375ZM630.375 74C631.125 72.5833 631.812 71.5625 632.438 70.9375C633.062 70.2708 633.958 69.8333 635.125 69.625C636.042 69.5 636.5 69.2083 636.5 68.75C636.5 68.4167 636.375 68.0625 636.125 67.6875C635.333 66.6042 634.5 65.6667 633.625 64.875C632.75 64.0417 631.583 63.625 630.125 63.625C628.542 63.625 626.771 64.0833 624.812 65C622.854 65.9167 620.854 67.1458 618.812 68.6875C616.812 70.1875 614.833 71.9167 612.875 73.875C610.958 75.7917 609.25 77.7708 607.75 79.8125C606.25 81.8542 605.042 83.875 604.125 85.875C603.208 87.875 602.75 89.6667 602.75 91.25C602.75 92.6667 603.125 93.7708 603.875 94.5625C604.667 95.3542 605.729 95.75 607.062 95.75C610.479 95.75 614.208 93.9375 618.25 90.3125C622.292 86.6875 626.333 81.25 630.375 74ZM669.875 109.688C669.583 104.146 669.104 99.0417 668.438 94.375C667.812 89.6667 667.146 85.5625 666.438 82.0625C665.771 78.5625 665.167 75.7292 664.625 73.5625C664.125 71.3958 663.875 70.0417 663.875 69.5C663.875 68.7083 664.167 67.9375 664.75 67.1875C665.375 66.4375 666.146 65.7917 667.062 65.25C667.979 64.6667 668.958 64.2083 670 63.875C671.083 63.5417 672.062 63.375 672.938 63.375C673.646 63.375 674.25 63.5 674.75 63.75C675.292 64 675.667 64.4167 675.875 65C676.083 65.7083 676.271 66.4583 676.438 67.25C676.646 68 676.854 68.9167 677.062 70C677.312 71.5417 677.646 72.3125 678.062 72.3125C678.521 72.3125 679.042 71.625 679.625 70.25C680.458 68.3333 681.354 66.75 682.312 65.5C683.271 64.25 684.292 63.2708 685.375 62.5625C686.5 61.8125 687.646 61.2917 688.812 61C690.021 60.7083 691.271 60.5625 692.562 60.5625C696.479 60.5625 699.792 62.1042 702.5 65.1875C705.25 68.2708 707.396 72.7292 708.938 78.5625C709.146 79.2292 709.333 79.6667 709.5 79.875C709.667 80.0417 709.854 80.125 710.062 80.125C710.271 80.125 710.479 80.0417 710.688 79.875C710.938 79.6667 711.167 79.2708 711.375 78.6875C712.375 75.9792 713.542 73.6875 714.875 71.8125C716.208 69.8958 717.583 68.3542 719 67.1875C720.458 65.9792 721.938 65.1042 723.438 64.5625C724.938 64.0208 726.375 63.75 727.75 63.75C730.292 63.75 732.583 64.6875 734.625 66.5625C736.708 68.3958 738.542 71.25 740.125 75.125C741.75 78.9583 743.146 83.8333 744.312 89.75C745.521 95.625 746.521 102.604 747.312 110.688C747.312 112.938 746.625 114.5 745.25 115.375C743.875 116.292 742 116.75 739.625 116.75C738.083 116.75 736.875 116.417 736 115.75C735.125 115.083 734.625 114.208 734.5 113.125C733.958 107.333 733.354 102.188 732.688 97.6875C732.062 93.1458 731.375 89.3333 730.625 86.25C729.875 83.125 729.042 80.75 728.125 79.125C727.25 77.5 726.271 76.6875 725.188 76.6875C724.646 76.6875 723.958 77.0833 723.125 77.875C722.333 78.6667 721.479 80.125 720.562 82.25C719.646 84.3333 718.688 87.2083 717.688 90.875C716.688 94.5 715.729 99.1458 714.812 104.812C714.562 106.396 713.792 107.604 712.5 108.438C711.25 109.271 709.708 109.688 707.875 109.688C705.75 109.688 704.271 109.354 703.438 108.688C702.646 108.021 702.208 106.896 702.125 105.312C701.958 102.562 701.667 99.8333 701.25 97.125C700.875 94.375 700.396 91.7708 699.812 89.3125C699.229 86.8125 698.583 84.5208 697.875 82.4375C697.167 80.3125 696.417 78.4792 695.625 76.9375C694.833 75.3542 694.021 74.125 693.188 73.25C692.354 72.375 691.542 71.9375 690.75 71.9375C689.708 71.9375 688.688 72.6667 687.688 74.125C686.729 75.5833 685.854 77.6458 685.062 80.3125C684.312 82.9792 683.708 86.1875 683.25 89.9375C682.792 93.6875 682.562 97.875 682.562 102.5C682.562 103.292 682.583 104.083 682.625 104.875C682.667 105.625 682.688 106.417 682.688 107.25C682.688 108.5 682.479 109.521 682.062 110.312C681.688 111.104 681.125 111.729 680.375 112.188C679.667 112.646 678.833 112.958 677.875 113.125C676.917 113.292 675.875 113.375 674.75 113.375C673.708 113.375 672.875 113.292 672.25 113.125C671.625 113 671.146 112.792 670.812 112.5C670.479 112.208 670.25 111.812 670.125 111.312C670 110.854 669.917 110.312 669.875 109.688Z" fill="black"/>
</svg>
